<svg width="1920" height="1080" viewBox="0 0 1920 1080" fill="none" xmlns="http://www.w3.org/2000/svg" xmlns:xlink="http://www.w3.org/1999/xlink"><style>text{text-anchor:middle;dominant-baseline:middle; font-size:12px;}</style><path d="M247.576 29.7717L256.622 40.4798L253.686 59.7764L260.599 65.2028L267.467 89.2558L264.23 97.3352L266.499 105.381L273.048 103.731L281.505 101.53L285.724 96.4754L294.437 101.392L291.049 110.987L295.709 121.307L304.618 128.292L309.685 124.197L315.009 130.736L318.428 136.793L330.075 138.686L334.947 133.833L334.099 124.06L340.089 112.466L332.027 108.786L331.951 93.2438L339.681 76.4022L345.292 77.8802L344.461 65.787L340.634 66.0957L340.497 55.6891L333.857 43.1571L327.867 39.3129L316.204 19.239L311.046 18.7929L293.454 10.9042L282.2 11.8643L278.085 22.6354L269.903 18.7242L253.762 19.4103L247.576 29.7717Z"  stroke="black" /><path d="M55.7565 398.236L59.6895 404.304L67.8879 400.906L84.4967 400.732L89.458 412.938L95.3427 414.603L113.873 413.563L124.945 424.455L138.907 427.89L142.477 432.678L152.96 434.448L158.571 440L171.021 433.892L185.436 432.539L189.308 429.173L194.784 397.751L198.384 395.567L195.056 378.341L199.125 371.204L194.421 359.946L185.284 363.86L182.94 378.376L175.589 386L155.002 384.856L151.038 377.822L154.533 364.38L154.245 355.513L149.495 351.185L135.973 346.096L132.992 335.468L121.179 345.923L117.987 358.561L107.08 349.523L100.062 350.7L97.0364 360.812L98.6853 369.021L78.6579 372.763L69.2945 379.208L55.7565 398.236Z"  stroke="black" /><path d="M55.1513 139.237L56.9363 145.124L63.9855 149.496L66.3751 159.449L74.1198 159.69L75.2093 147.19L86.0094 151.596L88.1273 148.98L95.9474 166.476L110.545 171.368L118.909 166.717L129.543 176.02L136.139 176.158L141.508 166.441L145.85 164.995L149.526 175.123L143.324 187.841L155.288 185.497L162.761 200.46L166.785 198.425L170.385 209.322L176.769 208.219L179.037 214.462L182.274 205.184L180.716 194.356L183.348 185.946L181.2 177.33L172.548 175.572L172.412 165.787L187.327 164.684L189.656 162.618L185.768 145.399L190.972 138.239L192.5 127.432L182.683 127.638L174.53 120.344L175.317 116.284L162.035 114.565L157.86 101.53L164.728 94.2748L159.797 79.6329L159.041 67.2294L148.27 63.2107L133.915 58.4365L123.917 57.6809L117.14 53.5256L110.03 56.3071L108.564 64.5497L102.512 67.0233L92.8016 81.2135L94.4953 92.9681L90.9259 99.879L82.107 103.18L74.7402 118.383L65.7246 125.642L55.1513 139.237Z"  stroke="black" /><path d="M183.681 289.672L181.019 277.541L186.146 272.255L177.328 269.594L165.075 272.98L157.24 265.138L152.415 246.695L143.324 246.42L141.358 254.396L136.199 255.536L126.881 267.349L123.735 265.138L120.12 269.491L122.858 280.202L128.001 285.248L124.536 294.201L125.066 316.472L131.843 325.087L133.461 334.534L140.041 328.512L146.622 330.416L155.002 327.613L153.988 320.035L161.022 315.573L168.071 323.53L171.656 313.774L181.654 314.05L178.145 300.044L179.4 290.468L183.681 289.672Z"  stroke="black" /><path d="M329.924 235.062L331.347 220.327L340.724 191.082L345.596 183.705L349.438 170.921L333.676 168.199L328.941 177.123L325.598 173.332L325.16 162.067L319.411 151.425H312.649L309.367 156.9L303.74 155.97L299.429 163.376L290.414 168.096L283.652 184.774L288.871 188.393L286.436 203.701L279.22 206.426L266.907 205.15L258.043 211.772L254.821 208.047L248.997 224.433L250.449 243.105L256.077 253.568L267.679 252.911L271.006 258.609L306.145 237.237L308.187 232.336L315.418 231.024L329.924 235.062Z"  stroke="black" /><path d="M349.437 170.921L357.772 167.234L368.058 155.385L380.598 133.076L394.999 121.893L405.194 116.457L400.731 87.1252L395.769 68.1914L388.569 33.41L383.896 29.3946L372.55 33.1005L362.295 27.8503L357.333 20.7487L351.828 19.514L347.35 3.2227L342.419 0L337.291 6.34357L322.028 11.7271L316.204 19.2392L327.867 39.3132L333.857 43.1573L340.497 55.6893L340.634 66.096L344.461 65.7873L345.292 77.8805L339.681 76.4025L331.951 93.244L332.027 108.786L340.089 112.466L334.099 124.06L334.947 133.833L330.075 138.687L318.428 136.793L315.009 130.736L306.932 137.688L309.533 144.023L315.222 142.37L319.411 151.425L325.16 162.067L325.597 173.332L328.941 177.123L333.676 168.199L349.437 170.921Z"  stroke="black" /><path d="M256.077 253.567L247.862 265.517L246.139 272.669L237.577 278.543L245.821 294.512L239.528 306.061L232.615 311.629L233.568 327.751L249.103 342.149L252.642 339.241L265.122 345.195L270.401 338.48L283.985 331.315L290.218 333.565L311.091 329.689L311.984 307.306L324.584 300.355L326.657 288.497L325.885 275.71L329.924 235.062L315.418 231.024L308.187 232.335L306.145 237.236L271.006 258.609L267.679 252.911L256.077 253.567Z"  stroke="black" /><path d="M87.2652 279.926L81.4713 273.084L85.3741 259.991L82.9539 247.283L68.2361 242.553L70.5503 230.127L65.4829 225.054L59.4315 205.77L53.1094 205.84L39.5556 196.839L31.4781 200.149L18.4693 196.218L8.77347 177.364L2.38967 195.805L0 222.604L1.17979 241.276L6.42868 252.773L7.63906 269.871L0.741316 281.308L0.347723 294.962L11.2238 315.123L27.8479 311.802L36.0009 314.431L41.3859 307.721L55.1361 299.145L64.6814 299.94L69.2793 295.066L78.4157 295.377L82.3186 284.591L87.2652 279.926Z"  stroke="black" /><path d="M266.907 205.15L279.22 206.425L286.436 203.701L288.871 188.393L283.652 184.774L290.414 168.096L299.429 163.376L303.74 155.97L309.367 156.9L312.649 151.425H319.411L315.222 142.37L309.533 144.023L306.932 137.688L315.009 130.736L309.685 124.197L304.618 128.292L295.709 121.308L291.049 110.987L294.437 101.392L285.724 96.4756L281.505 101.53L273.048 103.731L266.378 116.25L260.645 114.737L256.44 107.17L251.629 112.294L252.597 131.39L261.568 125.092L262.248 136.828L269.872 140.683L267.376 155.282L261.87 154.146L257.045 160.62L257.242 174.711L260.932 186.739L267.437 187.669L266.907 205.15Z"  stroke="black" /><path d="M248.997 224.433L254.821 208.047L258.043 211.772L266.907 205.15L267.437 187.669L260.932 186.739L257.242 174.711L257.045 160.62L261.87 154.146L267.376 155.282L269.872 140.683L262.248 136.828L261.568 125.092L252.597 131.39L246.804 133.798L249.693 143.816L241.948 146.26L237.652 154.111L233.523 147.707L220.09 147.637L221.513 151.494L216.218 161.068L215.946 168.13L209.986 169.163L201.818 178.708L201.213 190.358L217.686 201.253L223.252 212.359L234.506 215.187L239.528 224.123L248.997 224.433Z"  stroke="black" /><path d="M252.597 131.39L251.629 112.294L256.44 107.17L260.645 114.737L266.378 116.25L273.048 103.731L266.499 105.382L264.23 97.3355L267.467 89.2561L260.599 65.203L253.686 59.7767L256.622 40.4801L247.576 29.772L229.787 39.9993L224.492 37.0133L206.492 39.0724L210.485 60.6009L204.404 63.6232L211.242 67.5732L209.638 79.2898L213.359 83.6883L206.114 111.297L195.284 120.998L192.5 127.432L190.972 138.239L185.768 145.4L189.656 162.618L187.327 164.685L196.433 170.679L206.855 163.617L209.986 169.163L215.946 168.13L216.218 161.068L221.513 151.494L220.09 147.637L233.523 147.707L237.652 154.111L241.948 146.26L249.693 143.816L246.804 133.798L252.597 131.39Z"  stroke="black" /><path d="M206.492 39.0721L199.837 37.1505L191.245 39.6903L183.167 31.8307L162.429 38.18L152.838 47.9289L148.27 63.2108L159.041 67.2295L159.797 79.633L164.728 94.2749L157.86 101.53L162.035 114.565L175.317 116.284L174.53 120.344L182.683 127.638L192.5 127.432L195.284 120.998L206.114 111.297L213.359 83.6881L209.638 79.2896L211.242 67.573L204.404 63.623L210.485 60.6007L206.492 39.0721Z"  stroke="black" /><path d="M115.521 261.959L123.735 265.137L126.881 267.348L136.199 255.536L141.358 254.395L143.324 246.419L152.415 246.695L158.51 237.616L165.061 241.793L167.042 234.613L179.158 227.573L179.037 214.462L176.769 208.219L170.385 209.322L166.785 198.425L162.761 200.46L155.288 185.497L143.324 187.841L149.526 175.123L145.85 164.995L141.509 166.441L136.139 176.158L129.543 176.02L118.909 166.717L110.545 171.368L95.9474 166.476L88.1274 148.98L86.0095 151.596L75.2093 147.19L74.1198 159.69L73.9388 178.777L80.3068 181.81L90.1387 195.563L86.4479 209.012L93.5425 222.466L95.7358 235.269L111.104 238.756L115.521 261.959Z"  stroke="black" /><path d="M74.1198 159.69L66.3752 159.449L63.9855 149.496L56.9363 145.124L55.1514 139.237L48.3449 146.776L35.1694 155.281L25.5791 168.129L16.8362 169.129L8.7735 177.364L18.4693 196.218L31.4781 200.149L39.5556 196.839L53.1094 205.839L59.4316 205.77L65.4829 225.054L70.5503 230.127L68.2361 242.553L82.9539 247.283L85.3742 259.991L81.4713 273.084L87.2652 279.926L89.9725 274.259L100.576 276.366L110.181 273.947L115.521 261.959L111.104 238.756L95.7358 235.269L93.5425 222.466L86.4479 209.012L90.1387 195.564L80.3068 181.81L73.9388 178.777L74.1198 159.69Z"  stroke="black" /><path d="M132.992 335.468L133.461 334.534L131.843 325.086L125.066 316.472L124.536 294.201L128.001 285.248L122.858 280.202L120.12 269.491L123.735 265.137L115.521 261.959L110.181 273.947L100.576 276.366L89.9725 274.258L87.2652 279.926L82.3186 284.591L78.4157 295.377L69.2792 295.065L64.6814 299.94L55.136 299.145L41.3859 307.721L36.0009 314.431L27.8479 311.802L11.2238 315.122L11.935 324.602L8.16827 348.138L8.80355 365.245L10.9821 370.476L19.4227 374.53L30.3288 374.98L47.4062 380.524L55.7565 398.235L69.2945 379.207L78.6579 372.762L98.6853 369.021L97.0364 360.811L100.062 350.7L107.08 349.522L117.987 358.561L121.179 345.922L132.992 335.468Z"  stroke="black" /><path d="M232.615 311.629L226.973 304.159L221.043 303.122L214.222 310.211L212.376 306.925L202.514 312.563L193.166 294.961L190.337 299.422L192.923 313.636L197.855 313.29L203.981 323.461L198.263 341.803L205.116 346.857L202.196 359.911L194.421 359.946L199.125 371.204L195.056 378.341L198.384 395.566L217.051 389.465L230.134 392.897L241.737 389.327L244.959 384.301L249.224 360.916L265.122 345.195L252.642 339.241L249.103 342.149L233.568 327.751L232.615 311.629Z"  stroke="black" /><path d="M183.681 289.673L179.4 290.468L178.145 300.044L181.654 314.05L171.656 313.774L168.071 323.53L161.022 315.573L153.988 320.035L155.002 327.613L146.622 330.416L140.041 328.512L133.461 334.534L132.992 335.468L135.973 346.096L149.495 351.185L154.245 355.513L154.533 364.38L151.038 377.822L155.002 384.856L175.589 386L182.94 378.376L185.284 363.86L194.421 359.946L202.196 359.912L205.116 346.857L198.263 341.803L203.981 323.461L197.855 313.29L192.923 313.636L190.337 299.422L193.166 294.962L183.681 289.673Z"  stroke="black" /><path d="M209.986 169.163L206.855 163.617L196.433 170.679L187.327 164.685L172.412 165.787L172.548 175.572L181.2 177.33L183.348 185.946L180.716 194.357L182.274 205.184L179.037 214.462L179.158 227.573L167.042 234.614L165.061 241.794L158.51 237.616L152.415 246.695L157.24 265.138L165.075 272.98L177.328 269.595L186.146 272.255L181.019 277.541L183.681 289.673L193.166 294.962L202.514 312.564L212.376 306.925L214.222 310.211L221.043 303.122L226.973 304.159L232.615 311.629L239.528 306.062L245.821 294.512L237.577 278.543L246.139 272.669L247.862 265.518L256.077 253.568L250.449 243.105L248.997 224.433L239.528 224.123L234.506 215.187L223.252 212.359L217.686 201.253L201.213 190.358L201.818 178.708L209.986 169.163Z"  stroke="black" /><text fill="#000000" transform="translate(295.9318199157714 79.71205472946167)">海口市</text><text fill="#000000" transform="translate(126.93839645385737 392.6514239311218)">三亚市</text><text fill="#000000" transform="translate(123.32355880737299 138.9108386039734)">儋州市</text><text fill="#000000" transform="translate(152.46350097656244 295.3935809135437)">五指山市</text><text fill="#000000" transform="translate(298.7150230407714 209.9341540336609)">琼海市</text><text fill="#000000" transform="translate(355.56063461303705 93.47797727584839)">文昌市</text><text fill="#000000" transform="translate(280.7676048278808 293.0266375541687)">万宁市</text><text fill="#000000" transform="translate(43.13024902343744 251.16076231002808)">东方市</text><text fill="#000000" transform="translate(285.0182456970214 156.367534160614)">定安县</text><text fill="#000000" transform="translate(235.0398216247558 179.67974424362183)">屯昌县</text><text fill="#000000" transform="translate(228.906566619873 105.14271116256714)">澄迈县</text><text fill="#000000" transform="translate(180.31217575073237 84.65218687057495)">临高县</text><text fill="#000000" transform="translate(126.42675399780268 212.1861834526062)">白沙黎族自治县</text><text fill="#000000" transform="translate(62.02500915527338 214.49792051315308)">昌江黎族自治县</text><text fill="#000000" transform="translate(70.6929321289062 335.01485776901245)">乐东黎族自治县</text><text fill="#000000" transform="translate(227.60777664184565 350.1809039115906)">陵水黎族自治县</text><text fill="#000000" transform="translate(168.59695434570307 342.7529864311218)">保亭黎族苗族自治县</text><text fill="#000000" transform="translate(203.78899383544916 243.00680112838745)">琼中黎族苗族自治县</text></svg>